<?xml version="1.0" encoding="utf-8"?>
<svg version="1.1" id="Layer_1" xmlns="http://www.w3.org/2000/svg" xmlns:xlink="http://www.w3.org/1999/xlink" x="0px" y="0px" viewBox="0 0 100 100" style="enable-background:new 0 0 100 100;" xml:space="preserve" width="60">
	<style type="text/css">
		.st0{fill:url(#SVGID_1_);}
		.st1{fill:url(#SVGID_2_);}
		.st2{fill:url(#SVGID_3_);}
		.st3{fill:url(#SVGID_4_);}
	</style>
	<title>
		birdwing-no_text
	</title>
	<linearGradient id="SVGID_1_" gradientUnits="userSpaceOnUse" x1="-2524.5898" y1="-1911.5913" x2="-2394.0432" y2="-1986.9594" gradientTransform="matrix(-0.1421 0 0 -0.1421 -321.0271 -193.711)">
		<stop offset="0" style="stop-color:#6668AB" />
		<stop offset="0.1" style="stop-color:#5F77B6" />
		<stop offset="0.34" style="stop-color:#4F96CF" />
		<stop offset="0.58" style="stop-color:#43ADE1" />
		<stop offset="0.8" style="stop-color:#3CBAEB" />
		<stop offset="1" style="stop-color:#3ABFEF" />
	</linearGradient>
	<path class="st0" d="M39.3,80.7c2.4,4.9,0.8,10.8-3.8,13.8c-0.1,0-0.1,0.1-0.2,0.1c-1.8,1.1-3.9,1.6-6,1.5
	c-5.8-0.2-10.3-5.1-10.3-10.9c0-2,0.6-3.9,1.7-5.6c0.1-0.1,0.1-0.2,0.2-0.3c1-1.4,1.9-2.8,2.9-4.2l0,0c2.1-2.9,4.3-5.8,6.7-8.6
	L39,80.2C39.1,80.4,39.2,80.5,39.3,80.7z" />
	<linearGradient id="SVGID_2_" gradientUnits="userSpaceOnUse" x1="-2640.1008" y1="-1900.3156" x2="-2194.9219" y2="-1455.1467" gradientTransform="matrix(-0.1421 0 0 -0.1421 -321.0271 -193.711)">
		<stop offset="0" style="stop-color:#3ABFEF" />
		<stop offset="0.24" style="stop-color:#3DBFEB" />
		<stop offset="0.49" style="stop-color:#45C0DE" />
		<stop offset="0.74" style="stop-color:#54C2CA" />
		<stop offset="0.99" style="stop-color:#67C5AD" />
		<stop offset="1" style="stop-color:#68C5AC" />
	</linearGradient>
	<path class="st1" d="M7.3,6.2L7.3,6.2c4.9,1.8,9.8,3.9,14.5,6.2c0.8,0.4,1.7,0.8,2.5,1.3c2.2,1.1,4.3,2.3,6.4,3.5
	c9.4,5.5,16.1,18.5,16.9,30.1c0,0,0.7,9.2,0,18s-2.9,15.1-3.2,15.9c-3.2,8.9-7.6,12.5-8.9,13.3c4.6-2.9,6.3-8.9,3.8-13.8
	c-0.1-0.2-0.2-0.3-0.3-0.5l-8.6-13.6l0,0c0,0-7.8-12.2-8.3-13c-5.3-7.6-9.8-15.7-13.5-24.2c-1-2.4-2-4.7-2.9-7.2
	C4.3,18.7,3,15.1,2,11.3l0,0c0-0.1,0-0.1,0-0.2c0,0,0,0,0,0C1.2,8.7,0.6,6.3,0,3.8C2.5,4.6,4.9,5.4,7.3,6.2z" />
	<linearGradient id="SVGID_3_" gradientUnits="userSpaceOnUse" x1="2684.2659" y1="-1911.5707" x2="2814.8284" y2="-1986.948" gradientTransform="matrix(0.1421 0 0 -0.1421 -318.9729 -193.711)">
		<stop offset="0" style="stop-color:#6668AB" />
		<stop offset="0.1" style="stop-color:#5F77B6" />
		<stop offset="0.34" style="stop-color:#4F96CF" />
		<stop offset="0.58" style="stop-color:#43ADE1" />
		<stop offset="0.8" style="stop-color:#3CBAEB" />
		<stop offset="1" style="stop-color:#3ABFEF" />
	</linearGradient>
	<path class="st2" d="M60.7,80.7c-2.4,4.9-0.8,10.8,3.8,13.8c0.1,0,0.1,0.1,0.2,0.1c1.8,1.1,3.9,1.6,6,1.5
	c5.8-0.2,10.3-5.1,10.3-10.9c0-2-0.6-3.9-1.7-5.6c-0.1-0.1-0.1-0.2-0.2-0.3c-1-1.4-1.9-2.8-2.9-4.2l0,0c-2.1-2.9-4.3-5.8-6.7-8.6
	L61,80.2C60.9,80.4,60.8,80.5,60.7,80.7z" />
	<linearGradient id="SVGID_4_" gradientUnits="userSpaceOnUse" x1="2568.7297" y1="-1900.2958" x2="3013.9136" y2="-1455.1219" gradientTransform="matrix(0.1421 0 0 -0.1421 -318.9729 -193.711)">
		<stop offset="0" style="stop-color:#3ABFEF" />
		<stop offset="0.24" style="stop-color:#3DBFEB" />
		<stop offset="0.49" style="stop-color:#45C0DE" />
		<stop offset="0.74" style="stop-color:#54C2CA" />
		<stop offset="0.99" style="stop-color:#67C5AD" />
		<stop offset="1" style="stop-color:#68C5AC" />
	</linearGradient>
	<path class="st3" d="M92.7,6.2L92.7,6.2c-4.9,1.8-9.8,3.9-14.5,6.2c-0.8,0.4-1.7,0.8-2.5,1.3c-2.2,1.1-4.3,2.3-6.4,3.5
	c-9.4,5.5-16.1,18.5-16.9,30.1c0,0-0.7,9.2,0,18s2.9,15.1,3.2,15.9c3.2,8.9,7.6,12.5,8.9,13.3c-4.6-2.9-6.3-8.9-3.8-13.8
	c0.1-0.2,0.2-0.3,0.3-0.5l8.6-13.6l0,0c0,0,7.8-12.2,8.3-13c5.3-7.6,9.8-15.7,13.5-24.2c1-2.4,2-4.7,2.9-7.2c1.4-3.6,2.6-7.2,3.7-11
	l0,0c0-0.1,0-0.1,0-0.2c0,0,0,0,0,0c0.7-2.4,1.3-4.8,1.9-7.3C97.5,4.6,95.1,5.4,92.7,6.2z" />
</svg>
