<?xml version="1.0" standalone="no"?>
<!DOCTYPE svg PUBLIC "-//W3C//DTD SVG 20010904//EN"
 "http://www.w3.org/TR/2001/REC-SVG-20010904/DTD/svg10.dtd">
<svg version="1.0" xmlns="http://www.w3.org/2000/svg"
 width="787.000000pt" height="787.000000pt" viewBox="0 0 787.000000 787.000000"
 preserveAspectRatio="xMidYMid meet">
<metadata>
Created by potrace 1.14, written by Peter Selinger 2001-2017
</metadata>
<g transform="translate(0.000000,787.000000) scale(0.100000,-0.100000)"
fill="#000000" stroke="none">
<path d="M424 7163 c3 -10 12 -48 20 -85 64 -283 224 -798 358 -1158 278 -744
693 -1550 1113 -2160 39 -58 190 -289 334 -515 145 -225 273 -426 285 -444
l22 -35 -99 -120 c-220 -269 -557 -738 -623 -868 -139 -275 -98 -593 108 -840
84 -101 252 -200 394 -234 98 -23 304 -15 394 16 205 69 355 200 531 462 359
534 540 1398 515 2458 -14 584 -47 835 -151 1160 -109 338 -302 704 -503 954
-87 110 -277 294 -382 372 -295 220 -1075 606 -1705 844 -165 63 -594 210
-611 210 -3 0 -3 -8 0 -17z"/>
<path d="M7230 7111 c-540 -180 -1087 -414 -1563 -667 -429 -228 -559 -316
-747 -504 -138 -137 -202 -215 -312 -381 -191 -286 -351 -658 -428 -999 -56
-241 -75 -448 -86 -920 -25 -1060 156 -1924 515 -2458 176 -262 326 -393 531
-462 90 -31 296 -39 394 -16 142 34 310 133 394 234 206 247 247 565 108 840
-66 130 -403 599 -623 868 l-99 120 22 35 c12 18 140 219 285 444 144 226 295
457 334 515 420 610 835 1416 1113 2160 134 360 294 875 358 1158 8 37 17 75
20 85 3 9 2 17 -3 17 -4 -1 -100 -32 -213 -69z"/>
</g>
</svg>
